<?xml version="1.0" encoding="utf-8"?>
<!-- Generator: Adobe Illustrator 16.0.0, SVG Export Plug-In . SVG Version: 6.00 Build 0)  -->
<!DOCTYPE svg PUBLIC "-//W3C//DTD SVG 1.1//EN" "http://www.w3.org/Graphics/SVG/1.1/DTD/svg11.dtd">
<svg version="1.1" id="Layer_1" xmlns="http://www.w3.org/2000/svg" xmlns:xlink="http://www.w3.org/1999/xlink" x="0px" y="0px"
	 width="612px" height="612px" viewBox="0 0 612 612" enable-background="new 0 0 612 612" xml:space="preserve">
<line fill="none" stroke="#553215" stroke-width="20" stroke-miterlimit="10" x1="370.018" y1="268.863" x2="370.018" y2="268.863"/>
<polyline fill="none" stroke="#553215" stroke-width="20" stroke-miterlimit="10" points="370.018,268.863 409.945,199.705 
	453.246,274.705 496.547,349.705 539.848,424.705 583.148,499.705 496.547,499.705 409.944,499.705 323.342,499.705 236.74,499.705 
	236.74,499.705 "/>
<polyline fill="none" stroke="#553215" stroke-width="20" stroke-miterlimit="10" points="236.739,498.97 195.303,498.858 
	89.945,498.576 "/>
<polyline fill="none" stroke="#553215" stroke-width="20" stroke-miterlimit="10" points="511.375,499.705 406.018,499.423 
	300.66,499.141 236.739,498.97 "/>
<polyline fill="none" stroke="#553215" stroke-width="20" stroke-miterlimit="10" points="156.537,360.796 182.742,306.576 
	229.141,210.576 275.539,114.576 334.498,210.858 370.018,268.862 "/>
<path fill="none" stroke="#553215" stroke-width="20" stroke-miterlimit="10" d="M89.945,498.576"/>
<path fill="none" stroke="#553215" stroke-width="20" stroke-miterlimit="10" d="M156.541,360.797"/>
<polyline fill="none" stroke="#553215" stroke-width="20" stroke-miterlimit="10" points="236.74,499.705 236.74,499.705 
	210.759,499.705 184.778,499.705 158.797,499.705 132.816,499.705 106.835,499.705 80.854,499.705 54.874,499.705 28.893,499.705 
	41.883,477.205 54.874,454.705 67.864,432.205 80.854,409.705 93.845,387.205 106.835,364.705 119.826,342.205 132.816,319.705 
	135.782,324.842 138.748,329.979 141.713,335.115 144.679,340.251 147.644,345.387 150.609,350.523 156.537,360.796 "/>
</svg>
