<?xml version="1.0" encoding="utf-8"?>
<!-- Generator: Adobe Illustrator 16.0.0, SVG Export Plug-In . SVG Version: 6.00 Build 0)  -->
<!DOCTYPE svg PUBLIC "-//W3C//DTD SVG 1.1//EN" "http://www.w3.org/Graphics/SVG/1.1/DTD/svg11.dtd">
<svg version="1.1" id="Layer_1" xmlns="http://www.w3.org/2000/svg" xmlns:xlink="http://www.w3.org/1999/xlink" x="0px" y="0px"
	 width="612px" height="612px" viewBox="-6 -6 612 612" enable-background="new -6 -6 612 612" xml:space="preserve">
<g>
	<path fill="none" stroke="#000000" stroke-miterlimit="10" d="M133.255,295.196"/>
	<path fill="none" stroke="#000000" stroke-miterlimit="10" d="M151.896,285.011"/>
	<line fill="none" stroke="#000000" stroke-width="3" stroke-miterlimit="10" x1="461.718" y1="430.062" x2="74.101" y2="403.669"/>
	<line fill="none" stroke="#000000" stroke-width="3" stroke-miterlimit="10" x1="563.681" y1="377.14" x2="72.022" y2="344.573"/>
	<line fill="none" stroke="#000000" stroke-width="3" stroke-miterlimit="10" x1="363.724" y1="433.8" x2="505.403" y2="358.409"/>
	<line fill="none" stroke="#000000" stroke-width="3" stroke-miterlimit="10" x1="339.979" y1="432.21" x2="481.687" y2="356.819"/>
	<line fill="none" stroke="#000000" stroke-width="3" stroke-miterlimit="10" x1="316.229" y1="430.603" x2="457.94" y2="355.226"/>
	<line fill="none" stroke="#000000" stroke-width="3" stroke-miterlimit="10" x1="292.511" y1="429.015" x2="434.187" y2="353.62"/>
	
		<line fill="none" stroke="#000000" stroke-width="3" stroke-miterlimit="10" x1="268.755" y1="427.413" x2="410.456" y2="352.034"/>
	
		<line fill="none" stroke="#000000" stroke-width="3" stroke-miterlimit="10" x1="245.038" y1="425.823" x2="386.741" y2="350.433"/>
	
		<line fill="none" stroke="#000000" stroke-width="3" stroke-miterlimit="10" x1="221.296" y1="424.226" x2="362.997" y2="348.839"/>
	
		<line fill="none" stroke="#000000" stroke-width="3" stroke-miterlimit="10" x1="197.565" y1="422.628" x2="339.241" y2="347.237"/>
	
		<line fill="none" stroke="#000000" stroke-width="3" stroke-miterlimit="10" x1="173.853" y1="421.038" x2="315.538" y2="345.642"/>
	<line fill="none" stroke="#000000" stroke-miterlimit="10" x1="150.103" y1="419.444" x2="291.784" y2="344.05"/>
	<line fill="none" stroke="#000000" stroke-miterlimit="10" x1="126.347" y1="417.839" x2="268.052" y2="342.464"/>
	<line fill="none" stroke="#000000" stroke-miterlimit="10" x1="102.632" y1="416.247" x2="244.323" y2="340.856"/>
	<line fill="none" stroke="#000000" stroke-miterlimit="10" x1="78.882" y1="414.646" x2="220.589" y2="339.265"/>
	<path fill="none" stroke="#000000" stroke-miterlimit="10" d="M173.124,336.071"/>
	<path fill="none" stroke="#000000" stroke-miterlimit="10" d="M258.446,317.853"/>
	
		<linearGradient id="SVGID_1_" gradientUnits="userSpaceOnUse" x1="204.4326" y1="360.9453" x2="390.1299" y2="360.9453" gradientTransform="matrix(1 0 0 -1 84 575)">
		<stop  offset="0.1177" style="stop-color:#000000"/>
		<stop  offset="0.9852" style="stop-color:#FFFFFF"/>
	</linearGradient>
	<path fill="url(#SVGID_1_)" stroke="#000000" stroke-width="2" stroke-miterlimit="10" d="M288.433,318.8l185.697,9.289
		c-19.842-157.887-39.566-235.941-170.078-227.441"/>
	<path fill="#7B7C7F" stroke="#000000" stroke-width="2" stroke-miterlimit="10" d="M364.052,100.647
		c-38.057,5.496-71.562,77.164-75.963,214.684c-1.305,40.84-0.051,87.492,4.422,139.949L76.827,445.046
		c-17.941-210.57,5.85-317.664,49.764-340.73"/>
	
		<line fill="none" stroke="#000000" stroke-width="2" stroke-miterlimit="10" x1="125.649" y1="102.229" x2="354.638" y2="102.229"/>
</g>
</svg>
