<?xml version="1.0" encoding="utf-8"?>
<!-- Generator: Adobe Illustrator 16.0.0, SVG Export Plug-In . SVG Version: 6.00 Build 0)  -->
<!DOCTYPE svg PUBLIC "-//W3C//DTD SVG 1.1//EN" "http://www.w3.org/Graphics/SVG/1.1/DTD/svg11.dtd">
<svg version="1.1" id="Layer_1" xmlns="http://www.w3.org/2000/svg" xmlns:xlink="http://www.w3.org/1999/xlink" x="0px" y="0px"
	 width="612px" height="612px" viewBox="0 0 612 612" enable-background="new 0 0 612 612" xml:space="preserve">
<path fill="none" stroke="#DBA138" stroke-width="42" stroke-miterlimit="10" d="M591,349.5c0-165.688-134.312-300-300-300
	c-149.113,0-270,120.883-270,270c0,134.203,108.797,243,243,243c120.785,0,218.703-97.918,218.703-218.703
	c0-108.704-88.125-196.829-196.828-196.829c-97.836,0-177.148,79.312-177.148,177.149c0,88.047,71.379,159.434,159.434,159.434
	c79.242,0,143.484-64.242,143.484-143.492c0-71.321-57.812-129.137-129.141-129.137c-64.186,0-116.221,52.035-116.221,116.231
	c0,57.766,46.832,104.602,104.604,104.602c51.988,0,94.141-42.152,94.141-94.145"/>
</svg>
