<?xml version="1.0" encoding="utf-8"?>
<!-- Generator: Adobe Illustrator 16.0.0, SVG Export Plug-In . SVG Version: 6.00 Build 0)  -->
<!DOCTYPE svg PUBLIC "-//W3C//DTD SVG 1.1//EN" "http://www.w3.org/Graphics/SVG/1.1/DTD/svg11.dtd">
<svg version="1.1" id="Layer_1" xmlns="http://www.w3.org/2000/svg" xmlns:xlink="http://www.w3.org/1999/xlink" x="0px" y="0px"
	 width="600px" height="600px" viewBox="0 0 600 600" enable-background="new 0 0 600 600" xml:space="preserve">
<g>
	<g>
		<path fill="none" stroke="#5A3B00" stroke-width="16" stroke-miterlimit="10" d="M318.693,141.819
			c8.979,19.277,1.439,86.664-0.36,108.364c-3.678,44.321,0.617,83.307,6.935,126.964c5.368,37.1,8.791,73.536,8.785,111.428
			c-0.003,20.859-4.211,39.726-4.211,61.057"/>
		<path fill="#004B23" stroke="#004B23" stroke-miterlimit="10" d="M310.799,237.674c-8.609,0.846-17.306-1.347-25.632-2.89
			c-15.598-2.89-30.875-2.335-46.8-2.374c-31.644-0.075-64.009,1.156-95.393,2.895c14.542,4.859,23.471,12.317,39.154,12.746
			c20.902,0.571,41.468-1.553,62.264,2.041c21.749,3.759,41.045,18.516,63.774,17.845"/>
		<path fill="#004B23" stroke="#004B23" stroke-miterlimit="10" d="M325.404,294.253c37.088-0.089,78.478,2.109,115.319,0.089
			c-15.815-8.885-27.879-25.385-45.756-30.018c-18.133-4.697-49.677-0.927-67.787-0.335"/>
		<path fill="#004B23" stroke="#004B23" stroke-miterlimit="10" d="M312.115,208.727c-10.404,4.325-25.995-0.776-36.904-2.632
			c-18.678-3.178-36.22-5.814-55.296-6.544c-17.352-0.664-67.068-7.991-68.774-29.828c51.666-6.777,113.687,4.793,164.396,4.793"/>
		<path fill="#004B23" stroke="#004B23" stroke-miterlimit="10" d="M331.852,188.99c41.915,0,83.17,6.465,124.925,3.718
			c-15.036-15.646-46.105-8.655-65.422-14.537c-10.859-3.307-14.087-12.293-24.239-15.521c-10.573-3.363-27.985,0.025-39.211,0.025"
			/>
		<path fill="#004B23" stroke="#004B23" stroke-miterlimit="10" d="M323.957,29.989c0,13.527-1.079,28.633,2.24,40.538
			c0.882,3.162,3.433,3.078,4.334,6.888c0.758,3.203-0.331,6.964,0.006,10.268c3.26,31.957,62.29,9.69,84.205,9.207
			c23.332-0.516,23.488,14.271,38.371,26.112c-27.743,3.681-49.798-20.048-75.272-8.083c-15.041,7.066-32.995,16.715-47.038,20.255
			c-1.934,5.229-3.609,10.17-4.481,15.523c-6.203-5.032-14.626-3.578-22.097-5.093c-10.538-2.137-19.57-9.877-29.275-12.891
			c-18.318-5.689-41.361,0.893-59.856,3.636c13.552,2.163,10.646-12.57,18.431-18.38c7.271-5.425,12.94-1.843,21.851-1.317
			c21.209,1.249,43.941-2.249,49.191-26.196c2.234-10.195-0.629-21.174,1.788-31.396C308.911,48.241,324.413,39.859,323.957,29.989z
			"/>
		
			<line fill="none" stroke="#5A3B00" stroke-width="16" stroke-miterlimit="10" x1="320.726" y1="348.596" x2="318.226" y2="554.779"/>
	</g>
	<g>
		<path fill="none" stroke="#5A3B00" stroke-width="16" stroke-miterlimit="10" d="M199.469,74.713
			c8.979,19.277,1.44,86.664-0.36,108.364c-3.678,44.32,0.617,83.308,6.935,126.965c3.204,22.136-2.991,43.89,5.208,64.919
			c7.018,17.999,3.851,36.214,3.854,55.564c0.004,18.742-2.105,37.218-2.105,55.947"/>
		<path fill="#004B23" stroke="#004B23" stroke-miterlimit="10" d="M191.575,170.569c-8.61,0.846-17.307-1.347-25.633-2.89
			c-15.598-2.891-30.875-2.335-46.8-2.374C87.499,165.23,71.384,166.46,40,168.199c14.542,4.86,7.222,12.318,22.905,12.747
			c20.901,0.571,41.468-1.553,62.264,2.041c21.748,3.759,41.045,18.516,63.774,17.845"/>
		<path fill="#004B23" stroke="#004B23" stroke-miterlimit="10" d="M206.18,227.147c37.088-0.088,78.478,2.109,115.319,0.09
			c-15.815-8.885-27.878-25.386-45.756-30.018c-18.132-4.697-49.676-0.927-67.786-0.335"/>
		<path fill="#004B23" stroke="#004B23" stroke-miterlimit="10" d="M192.891,141.622c-10.404,4.325-25.995-0.776-36.903-2.632
			c-18.678-3.178-36.221-5.814-55.296-6.545c-17.353-0.663-59.569-7.99-61.274-29.827c51.665-6.777,106.187,4.793,156.895,4.793"/>
		<path fill="#004B23" stroke="#004B23" stroke-miterlimit="10" d="M212.627,121.884c41.915,0,83.17,6.465,124.927,3.718
			c-15.038-15.646-46.107-8.655-65.424-14.537c-10.859-3.307-14.087-12.293-24.239-15.522c-10.572-3.362-27.984,0.026-39.211,0.026"
			/>
		<path fill="#004B23" stroke="#004B23" stroke-miterlimit="10" d="M219.726,27.694c0,10.821-0.863,22.906,1.792,32.43
			c0.706,2.53,2.746,2.462,3.467,5.51c0.606,2.562-14.01-48.361-13.672-45.058c3.26,31.957,62.289,9.69,84.204,9.207
			c23.333-0.516,23.489,14.271,38.371,26.111c-27.742,3.681-49.798-20.047-75.271-8.082c-15.042,7.065-32.996,16.714-47.039,20.255
			c-1.934,5.229-3.609,10.17-4.48,15.522c-6.203-5.031-14.626-3.577-22.097-5.092c-10.539-2.137-19.57-9.877-29.275-12.891
			c-18.318-5.689-41.362,0.893-59.857,3.636c13.552,2.163,10.646-12.57,18.431-18.38c7.271-5.425,12.941-1.843,21.851-1.317
			c21.21,1.249,43.942-2.249,49.191-26.196c2.235-10.195,18.369,35.778,20.302,27.6C207.689,42.295,220.091,35.59,219.726,27.694z"
			/>
		
			<line fill="none" stroke="#5A3B00" stroke-width="16" stroke-miterlimit="10" x1="201.502" y1="281.49" x2="199.002" y2="487.674"/>
	</g>
	<g>
		<path fill="none" stroke="#5A3B00" stroke-width="16" stroke-miterlimit="10" d="M381.899,130.924
			c8.979,19.277,1.439,86.664-0.361,108.365c-3.326,40.084,0.568,79.734,5.863,119.453c2.24,16.808,0.656,33.169,6.289,49.214
			c5.458,15.545,3.521,28.554,3.521,44.882c0,10.844,0.361,21.787-0.234,32.592c-1.069,19.387-3.977,38.652-3.977,57.886"/>
		<path fill="#004B23" stroke="#004B23" stroke-miterlimit="10" d="M374.005,226.78c-8.609,0.846-17.307-1.347-25.633-2.89
			c-15.598-2.89-30.874-2.335-46.8-2.373c-31.643-0.076-64.009,1.155-95.393,2.894c14.542,4.859,23.472,12.318,39.155,12.746
			c20.901,0.571,41.468-1.553,62.264,2.041c21.748,3.76,41.045,18.516,63.774,17.846"/>
		<path fill="#004B23" stroke="#004B23" stroke-miterlimit="10" d="M388.61,283.359c37.088-0.089,78.477,2.109,115.318,0.089
			c-15.815-8.884-27.878-25.385-45.756-30.017c-18.132-4.698-49.676-0.928-67.786-0.335"/>
		<path fill="#004B23" stroke="#004B23" stroke-miterlimit="10" d="M375.32,197.833c-10.403,4.326-25.995-0.776-36.903-2.632
			c-18.678-3.177-36.221-5.813-55.296-6.544c-17.353-0.663-67.069-7.99-68.774-29.827c51.665-6.777,113.687,4.792,164.396,4.792"/>
		<path fill="#004B23" stroke="#004B23" stroke-miterlimit="10" d="M395.057,178.096c41.915,0,83.171,6.465,124.926,3.717
			c-15.036-15.646-46.106-8.655-65.423-14.536c-10.859-3.307-14.086-12.294-24.239-15.522c-10.572-3.363-27.984,0.025-39.21,0.025"
			/>
		<path fill="#004B23" stroke="#004B23" stroke-miterlimit="10" d="M387.163,19.095c0,13.526-1.08,28.632,2.239,40.537
			c0.883,3.163,3.433,3.078,4.335,6.888c0.757,3.203-0.332,6.965,0.005,10.269c3.261,31.957,62.29,9.689,84.205,9.206
			c23.333-0.515,23.489,14.272,38.37,26.112c-27.741,3.681-49.797-20.048-75.271-8.082c-15.042,7.065-32.995,16.714-47.038,20.255
			c-1.934,5.229-3.61,10.169-4.481,15.522c-6.202-5.031-14.626-3.578-22.097-5.093c-10.539-2.136-19.57-9.877-29.275-12.891
			c-18.318-5.689-41.362,0.893-59.857,3.636c13.553,2.163,10.646-12.57,18.431-18.379c7.271-5.425,12.941-1.843,21.851-1.318
			c21.211,1.25,43.942-2.248,49.191-26.196c2.235-10.195-0.627-21.174,1.788-31.396C372.116,37.347,387.619,28.965,387.163,19.095z"
			/>
		
			<line fill="none" stroke="#5A3B00" stroke-width="16" stroke-miterlimit="10" x1="383.932" y1="337.701" x2="381.432" y2="543.887"/>
	</g>
</g>
</svg>
