<?xml version="1.0" encoding="utf-8"?>
<!-- Generator: Adobe Illustrator 16.0.0, SVG Export Plug-In . SVG Version: 6.00 Build 0)  -->
<!DOCTYPE svg PUBLIC "-//W3C//DTD SVG 1.1//EN" "http://www.w3.org/Graphics/SVG/1.1/DTD/svg11.dtd">
<svg version="1.1" id="Layer_1" xmlns="http://www.w3.org/2000/svg" xmlns:xlink="http://www.w3.org/1999/xlink" x="0px" y="0px"
	 width="612px" height="612px" viewBox="0 0 612 612" enable-background="new 0 0 612 612" xml:space="preserve">
<path fill="none" stroke="#603913" stroke-width="25" stroke-miterlimit="10" d="M309,181c-11.405,1.057-24.857,7.39-33.071,15.281
	c-11.466,11.015-8.929,20.24-8.929,35.587c0,20.469,0.685,39.856-1.877,59.773c-3.453,26.841-1.658,58.641,3.687,85.033
	c3,14.813,6.646,29.058,10.936,43.541c5.652,19.085,3.496,41.75,1.552,61.518c-1.607,16.343-5.83,32.322-6.297,48.472
	c-0.297,10.267,3.038,27.109-1,36.796"/>
<path fill="#006838" stroke="#603913" stroke-miterlimit="10" d="M298,192c5.59,0.403,10.705-1.198,16.152-2.203
	c18.219-3.361,36.498-4.159,54.963-5.02c34.942-1.63,68.293-4.39,101.964-12.947c15.89-4.038,44.085-5.946,41.197,16.902
	c-2.514,19.886-20.437,44.631-39.029,51.498c-35.856,13.242-79.002-5.915-108.738-25.593c-16.741-11.08-31.976-28.598-52.637-30.479
	C296.797,182.786,281.148,184,266,184"/>
<path fill="#006838" stroke="#603913" stroke-miterlimit="10" d="M269,220c-6.045,4.624-32.026,0.958-38.988,0.992
	c-37.862,0.187-68.421,2.598-95.797-27.427c-10.517-11.535-19.927-22.404-34.27-29.175c-5.191-2.45-10.873-3.486-15.22-7.215
	c36.017-2.64,75.983-10.411,107.727,11.96c24.303,17.128,36.854,48.269,60.986,66.822C265.739,245.413,283.896,247.613,295,258"/>
<path fill="#006838" stroke="#603913" stroke-miterlimit="10" d="M288,204c-8.376,1.409-21.31-53.188-24.493-60.614
	c-6.232-14.535-13.104-25.553-24.79-35.49c0.475-0.602,1.27-1.429,1.707-1.945c-8.577-1.311-17.009-9.497-25.37-8.682
	c-0.373-12.888-6.733-43.221,8.326-51.115c6.737-3.532,22.37-2.187,29.325-1.171c15.136,2.21,31.579,13.038,38.729,26.819
	c17.034,32.831-7.599,54.748-20.272,81.925c-3.285,7.044-7.901,38.552,4.84,37.272"/>
<path fill="#006838" stroke="#603913" stroke-miterlimit="10" d="M257,202c8.396,6.639,37.509-14.688,43.793-21.861
	c17.111-19.531,15.391-44.995,28.9-65.618c14.963-22.84,50.006-26.514,74.695-30.322c19.401-2.993,38.848-5.951,58.477-5.087
	c1.754,7.21-2.017,11.833-6.92,16.877c-12.41,12.768-34.164,28.261-51.452,33.058c-24.729,6.862-49.905,4.328-74.47,13.764
	c-25.893,9.945-31.605,27.762-43,50.237C281.78,203.395,273.281,212.494,269,223"/>
</svg>
